<svg width="100" height="30" fill="none" xmlns="http://www.w3.org/2000/svg"><path fill-rule="evenodd" clip-rule="evenodd" d="M14.076 4.21c.87-1.126 1.465-2.657 1.3-4.21-1.26.057-2.834.9-3.742 2.001-.802.97-1.52 2.56-1.334 4.054 1.415.11 2.868-.738 3.776-1.845zm6.591 15.062c-.02.092-.521 1.898-1.771 3.73-1.043 1.614-2.137 3.19-3.874 3.22-1.686.04-2.254-1.027-4.189-1.027-1.952 0-2.557.998-4.174 1.066-1.654.064-2.918-1.72-4-3.32-2.161-3.265-3.844-9.2-1.587-13.238 1.092-1.981 3.086-3.257 5.217-3.29 1.656-.035 3.192 1.155 4.21 1.155.997 0 2.898-1.424 4.856-1.211.82.025 3.151.335 4.656 2.602-.121.076-2.778 1.69-2.749 5.008.034 3.976 3.365 5.291 3.405 5.305zm57.202-13.19h.503c.746 0 1.27.18 1.27.718 0 .578-.66.718-1.201.718-.232 0-.378 0-.572-.02V6.081zm.01-1.934c.174-.02.33-.04.571-.04.697 0 1.026.21 1.026.598 0 .468-.504.638-1.104.638h-.493V4.148zm-1.17 4.086c.281.01.91.06 1.51.06.939 0 2.643-.14 2.643-1.466 0-.678-.475-1.076-1.182-1.186v-.02c.504-.11.97-.458.97-1.077 0-1.117-1.424-1.226-2.219-1.226-.649 0-1.374.06-1.724.12h.001v4.795zm-6.427-4.077c.815 0 1.144.878 1.144 1.637 0 .987-.473 1.665-1.151 1.665-.717 0-1.172-.708-1.172-1.646 0-.808.34-1.656 1.18-1.656zm-.047 4.188c1.2 0 2.42-.798 2.42-2.583 0-1.476-.939-2.493-2.342-2.493-1.423 0-2.44.977-2.44 2.573 0 1.565 1.035 2.503 2.362 2.503zm-6.88-.11h-1.19V3.38h1.19v1.854h1.821V3.38h1.19v4.856h-1.19V6.192h-1.82v2.044zm-7.15-4.855h4.161v4.856h-1.2V4.327h-1.772v3.909h-1.19V3.38zM52 7.837L50.269 3.38h1.319l.842 2.603c.096.299.203.667.27.936h.03c.067-.269.154-.637.252-.947l.735-2.592h1.268l-1.183 3.31c-.648 1.816-1.084 2.622-1.635 3.121-.475.42-.96.58-1.25.62l-.271-1.028c.204-.05.445-.16.688-.339.232-.15.493-.44.658-.769a.476.476 0 00.068-.219.65.65 0 00-.057-.24zm-2.454-3.51h-1.413v3.909h-1.192V4.327H45.53V3.38h4.018v.947zm-8.682 1.525c0-1.455.967-2.583 2.624-2.583.436 0 .88.1 1.151.22l-.212.927c-.193-.1-.475-.19-.9-.19-.91 0-1.453.688-1.444 1.575 0 .998.63 1.566 1.444 1.566.406 0 .706-.09.938-.19l.165.909c-.252.119-.746.25-1.336.25-1.472 0-2.43-.977-2.43-2.484zm-3.589-1.695c.814 0 1.143.878 1.143 1.637 0 .987-.475 1.665-1.152 1.665-.717 0-1.172-.708-1.172-1.646 0-.808.339-1.656 1.181-1.656zm-.049 4.188c1.2 0 2.42-.798 2.42-2.583 0-1.476-.939-2.493-2.343-2.493-1.423 0-2.44.977-2.44 2.573 0 1.565 1.036 2.503 2.363 2.503zM29.92 6.032c.214-.709.31-1.536.31-2.454V2.522h1.694v4.707h-2.488c.173-.33.358-.758.484-1.197zm-1.258 3.867l.068-1.665h3.959l.068 1.665h.91l.068-2.612-.62-.029V1.514h-3.99V3.27c0 .967-.076 1.785-.28 2.503-.145.528-.378 1.017-.63 1.486l-.522.03.06 2.611h.91zm65.826 8.71c.395-.545.914-.817 1.551-.817.695 0 1.214.279 1.551.837.264.434.392.946.378 1.54h-4.056c.059-.604.251-1.126.576-1.56zm5.337 2.082c0-1.126-.259-2.074-.773-2.84-.65-.966-1.606-1.449-2.869-1.449-1.287 0-2.309.483-3.065 1.448-.723.904-1.083 2.038-1.083 3.399 0 1.386.389 2.492 1.163 3.316.776.823 1.843 1.234 3.203 1.234 1.13 0 2.109-.185 2.938-.557l-.305-1.392c-.71.285-1.499.426-2.364.426-.781 0-1.419-.21-1.911-.63-.542-.47-.825-1.153-.847-2.045h5.842c.048-.247.071-.55.071-.91zm-8.71-2.322zm0-1.913v1.913a3.269 3.269 0 00-.614-.055c-.685 0-1.215.265-1.587.799-.324.47-.486 1.065-.486 1.782v4.738H86.48v-6.186c0-1.04-.018-1.988-.056-2.841h1.697l.071 1.727h.054c.206-.593.53-1.072.974-1.43a2.31 2.31 0 011.407-.484c.18 0 .343.013.488.037zm-8.89 6.784c-.422.728-1.006 1.093-1.751 1.093-.76 0-1.348-.358-1.769-1.074-.349-.592-.523-1.303-.523-2.131 0-.852.174-1.574.523-2.167.408-.717 1.006-1.076 1.786-1.076.757 0 1.342.358 1.75 1.076.348.593.522 1.302.522 2.13 0 .828-.179 1.543-.539 2.149zm-1.661-6.82c-1.335 0-2.397.445-3.186 1.337-.786.891-1.18 2.037-1.18 3.436 0 1.337.381 2.447 1.145 3.326.764.878 1.788 1.317 3.076 1.317 1.334 0 2.405-.458 3.21-1.374.768-.892 1.154-2.031 1.154-3.418 0-1.35-.372-2.451-1.119-3.305-.781-.88-1.814-1.32-3.1-1.32zm-7.594.182h2.147v1.507H72.97v4.384c0 1.114.379 1.67 1.137 1.67.348 0 .637-.03.865-.091l.054 1.522c-.384.148-.889.223-1.515.223-.769 0-1.37-.242-1.804-.725-.431-.483-.649-1.294-.649-2.434v-4.55h-1.28v-1.506h1.28V14.95l1.912-.595v2.248zm-5.05 3.347c.494.58.741 1.306.741 2.171 0 1.066-.361 1.932-1.08 2.602-.792.73-1.896 1.095-3.312 1.095-1.307 0-2.356-.26-3.147-.78l.45-1.671c.853.52 1.792.78 2.814.78.734 0 1.304-.17 1.712-.51.409-.341.615-.796.615-1.365 0-.509-.17-.935-.506-1.282-.337-.347-.895-.67-1.677-.966-2.129-.818-3.194-2.013-3.194-3.586 0-1.027.377-1.869 1.128-2.526.75-.656 1.746-.984 2.985-.984 1.106 0 2.027.198 2.76.594l-.49 1.635c-.688-.383-1.466-.576-2.335-.576-.687 0-1.226.174-1.61.52a1.51 1.51 0 00-.49 1.135c0 .494.188.904.56 1.225.324.297.915.62 1.767.966 1.047.435 1.817.941 2.309 1.523zm-13.13 3.436c-.408.58-.978.873-1.712.873-.627 0-1.136-.227-1.526-.679-.389-.453-.585-1.006-.585-1.662V20.41c0-.16.031-.363.091-.611.12-.533.374-.963.765-1.292a1.995 1.995 0 011.309-.492c.709 0 1.273.297 1.694.89.385.571.578 1.297.578 2.175 0 .953-.205 1.721-.614 2.304zm-1.026-6.966c-1.324 0-2.31.539-2.958 1.617h-.037l-.109-1.431h-1.71c.048 1.014.072 2.003.072 2.968v9.72h1.947v-4.737c.508.854 1.343 1.28 2.503 1.28 1.076 0 1.977-.395 2.703-1.189.81-.89 1.215-2.104 1.215-3.64 0-1.374-.347-2.482-1.036-3.325-.692-.842-1.555-1.263-2.588-1.263zm-9.056 6.966c-.408.58-.979.873-1.712.873-.625 0-1.133-.226-1.524-.679-.39-.453-.586-1.006-.586-1.662V20.41c0-.16.03-.363.09-.611a2.29 2.29 0 01.766-1.292 1.99 1.99 0 011.308-.492c.709 0 1.274.297 1.695.89.385.571.578 1.297.578 2.175 0 .953-.205 1.721-.615 2.304zm-1.025-6.966c-1.323 0-2.309.539-2.958 1.617h-.036l-.11-1.431h-1.712c.048 1.014.072 2.003.072 2.968v9.72h1.948v-4.737c.507.854 1.342 1.28 2.503 1.28 1.074 0 1.977-.395 2.702-1.189.81-.89 1.214-2.104 1.214-3.64 0-1.374-.346-2.482-1.036-3.325-.69-.842-1.553-1.263-2.587-1.263zm-13.24 3.993l1.01-3.269a105 105 0 00.577-2.358h.037c.3 1.237.504 2.024.613 2.358l1.027 3.27h-3.264zm.469-7.3l-3.914 12.52h2.02l1.082-3.678h3.95l1.136 3.678h2.075l-3.932-12.52h-2.417z" fill="#fff"/></svg>