<svg width="27" height="28" fill="none" xmlns="http://www.w3.org/2000/svg"><path fill-rule="evenodd" clip-rule="evenodd" d="M15.997 21.43c-.38.076-.516-.163-.516-.368 0-.251.01-1.08.01-2.106 0-.715-.24-1.183-.508-1.42 1.667-.191 3.418-.84 3.418-3.788 0-.838-.29-1.523-.77-2.06.077-.194.334-.975-.074-2.031 0 0-.628-.207-2.057.787a7.017 7.017 0 00-1.874-.259 7.008 7.008 0 00-1.874.259c-1.43-.994-2.058-.787-2.058-.787-.408 1.056-.15 1.837-.074 2.03a3.012 3.012 0 00-.77 2.06c0 2.942 1.747 3.6 3.41 3.794-.214.192-.408.53-.476 1.026-.426.196-1.51.535-2.179-.637 0 0-.396-.737-1.146-.791 0 0-.731-.01-.051.466 0 0 .49.236.83 1.123 0 0 .44 1.492 2.522 1.029.004.64.01 1.122.01 1.305 0 .203-.136.44-.51.37-2.975-1.015-5.12-3.892-5.12-7.283 0-4.239 3.351-7.675 7.485-7.675s7.485 3.436 7.485 7.675c0 3.39-2.142 6.265-5.113 7.282zM13.625.623C6.254.622.25 6.626.25 13.998c0 7.37 6.004 13.374 13.375 13.374A13.346 13.346 0 0027 13.998C27 6.626 20.997.622 13.625.622z" fill="#fff"/></svg>