<svg width="113" height="28" fill="none" xmlns="http://www.w3.org/2000/svg"><path fill-rule="evenodd" clip-rule="evenodd" d="M77.624 18.055c-.209-.535-.835-.907-1.573-.907-.948 0-2.264.843-2.216 2.495l3.79-1.588zm2.184.65L74.14 21.07c.434.858 1.108 1.296 2.055 1.296.948 0 1.606-.47 2.088-1.183l1.445.972c-.466.697-1.59 1.896-3.533 1.896-2.408 0-4.206-1.88-4.206-4.278 0-2.543 1.814-4.277 3.998-4.277 2.2 0 3.275 1.766 3.628 2.722l.193.486zm-10.58 5.087h1.862V11.218h-1.863V23.79zm-2.923-4.003c0-1.507-.996-2.608-2.264-2.608-1.284 0-2.36 1.101-2.36 2.608 0 1.49 1.076 2.576 2.36 2.576 1.268 0 2.264-1.085 2.264-2.576zm-.128-4.034h1.766v7.68c0 3.16-1.846 4.456-4.03 4.456-2.055 0-3.292-1.393-3.757-2.527l1.622-.681c.288.697.995 1.523 2.135 1.523 1.397 0 2.264-.875 2.264-2.512v-.616h-.064c-.418.519-1.22.973-2.232.973-2.12 0-4.062-1.863-4.062-4.261 0-2.415 1.943-4.294 4.062-4.294 1.011 0 1.814.454 2.232.956h.064v-.697zm35.691 4.619c-.497-.243-.881-.42-1.699-.42-.913 0-1.971.371-1.971 1.341 0 .761.85 1.068 1.458 1.068 1.074 0 2.068-.825 2.212-1.99zm1.795-1.424v4.82h-1.795v-.97h-.064c-.433.663-1.122 1.229-2.373 1.229-1.634 0-3.093-1.084-3.093-2.766 0-1.844 1.811-2.83 3.59-2.83.882 0 1.603.29 1.94.485v-.13c-.016-1.035-.994-1.617-1.956-1.617-.69 0-1.346.226-1.699.922l-1.65-.696c.576-1.326 1.97-1.924 3.317-1.924 2.132 0 3.783 1.245 3.783 3.477zm6.54-3.203l-2.132 5.451h-.064l-2.212-5.45h-2.003l3.317 7.618-1.891 4.238h1.939l5.114-11.857h-2.068zm-16.75 8.044h1.859V11.22h-1.86v12.57zm-45.559-4.018c0-1.54-1.108-2.592-2.392-2.592-1.285 0-2.393 1.053-2.393 2.592 0 1.523 1.108 2.592 2.393 2.592 1.284 0 2.392-1.07 2.392-2.592zm1.863 0c0 2.463-1.91 4.278-4.255 4.278-2.344 0-4.255-1.815-4.255-4.278 0-2.479 1.911-4.277 4.255-4.277s4.255 1.798 4.255 4.277zm40.81-4.65c0-.993-.79-2.155-2.18-2.155h-2.644v4.31h2.645c1.39 0 2.18-1.18 2.18-2.155zm1.86 0c0 2.399-2.026 3.904-4.087 3.904h-2.597v4.764h-1.859V11.218h4.456c2.061 0 4.087 1.506 4.087 3.905zm-35.251 4.65c0-1.54-1.108-2.592-2.392-2.592-1.285 0-2.393 1.053-2.393 2.592 0 1.523 1.108 2.592 2.393 2.592 1.284 0 2.392-1.07 2.392-2.592zm1.863 0c0 2.463-1.911 4.278-4.255 4.278s-4.255-1.815-4.255-4.278c0-2.479 1.91-4.277 4.255-4.277 2.344 0 4.255 1.798 4.255 4.277zM34.46 16.81v1.814h4.303c-.129 1.021-.466 1.767-.98 2.285-.626.632-1.605 1.328-3.323 1.328-2.65 0-4.72-2.155-4.72-4.828 0-2.673 2.07-4.829 4.72-4.829 1.429 0 2.472.568 3.243 1.297l1.268-1.28c-1.075-1.037-2.504-1.83-4.511-1.83-3.63 0-6.68 2.98-6.68 6.642 0 3.662 3.05 6.643 6.68 6.643 1.958 0 3.436-.648 4.592-1.863 1.188-1.2 1.557-2.884 1.557-4.245 0-.422-.032-.81-.096-1.134H34.46zM62.966 2.935l-.033-1.163h.033l3.04 4.922h.802V.659h-.769v3.532l.033 1.163h-.033L63.133.659h-.935v6.035h.768v-3.76zm-7.208.742c0 .702.221 1.28.663 1.732.443.452.984.678 1.625.678.64 0 1.182-.226 1.624-.678.443-.452.665-1.03.665-1.732s-.222-1.28-.665-1.732a2.185 2.185 0 00-1.624-.678c-.64 0-1.182.226-1.625.678-.441.452-.663 1.03-.663 1.732zm.096 2.238c-.588-.61-.88-1.356-.88-2.238 0-.882.292-1.628.88-2.237.587-.61 1.318-.915 2.192-.915.87 0 1.598.306 2.189.919.59.612.884 1.356.884 2.233 0 .882-.294 1.628-.88 2.238-.588.61-1.32.914-2.193.914-.874 0-1.605-.305-2.192-.914zm-5.064.779V1.4h1.67V.659h-4.11v.742h1.67v5.293h.77zm-4.176 0h.768V.659h-.768v6.035zm-4.644 0V1.4h1.67V.659h-4.109v.742h1.67v5.293h.77zm-3.24-.742h-2.723V4.04h2.456v-.725h-2.456V1.401h2.723V.659h-3.49v6.035h3.49v-.742zm-9.733-.029c-.605-.604-.906-1.353-.906-2.246 0-.894.301-1.642.906-2.246a2.995 2.995 0 012.2-.906c.428 0 .838.084 1.228.253.389.169.701.393.935.674l-.526.53c-.396-.476-.94-.715-1.637-.715-.63 0-1.173.223-1.633.67-.46.447-.689 1.026-.689 1.74s.23 1.294.69 1.74a2.26 2.26 0 001.632.67c.668 0 1.225-.224 1.67-.673.29-.293.457-.7.502-1.223h-2.172v-.725h2.898c.028.158.042.31.042.456 0 .842-.248 1.514-.743 2.014-.562.595-1.295.893-2.197.893a2.995 2.995 0 01-2.2-.906z" fill="#fff"/><path opacity=".9" fill-rule="evenodd" clip-rule="evenodd" d="M.396 1.894C.147 2.161 0 2.575 0 3.112V22.29c0 .538.147.952.396 1.219l.063.062 10.59-10.743v-.254L.459 1.832l-.063.063z" fill="#fff"/><path opacity=".6" fill-rule="evenodd" clip-rule="evenodd" d="M10.957 12.591v.257l3.53 3.624.08-.046 4.182-2.439c1.195-.697 1.195-1.837 0-2.534l-4.182-2.439-.08-.046-3.53 3.623z" fill="#fff"/><path opacity=".7" fill-rule="evenodd" clip-rule="evenodd" d="M.424 23.528c.392.422 1.038.474 1.766.053l12.415-7.172-3.59-3.65L.425 23.53z" fill="#fff"/><path opacity=".8" fill-rule="evenodd" clip-rule="evenodd" d="M11.027 12.754l3.59-3.706L2.202 1.766c-.341-.2-.664-.295-.952-.295a1.07 1.07 0 00-.814.349l10.591 10.934z" fill="#fff"/></svg>