<svg width="27" height="28" viewBox="0 0 27 28" fill="none" xmlns="http://www.w3.org/2000/svg">
<path fill-rule="evenodd" clip-rule="evenodd" d="M15.9967 21.4308C15.6167 21.5061 15.4814 21.2674 15.4814 21.0623C15.4814 20.8107 15.4906 19.9824 15.4906 18.9557C15.4906 18.2406 15.2519 17.7725 14.9829 17.5354C16.6503 17.3446 18.4005 16.6964 18.4005 13.7478C18.4005 12.9096 18.1109 12.2249 17.6306 11.6876C17.7081 11.4938 17.965 10.7134 17.5569 9.65703C17.5569 9.65703 16.9292 9.45033 15.5004 10.4436C14.9023 10.2733 14.2617 10.1882 13.6256 10.1852C12.9895 10.1882 12.3489 10.2733 11.7515 10.4436C10.322 9.45033 9.69355 9.65703 9.69355 9.65703C9.28621 10.7134 9.54308 11.4938 9.61983 11.6876C9.14105 12.2249 8.84923 12.9096 8.84923 13.7478C8.84923 16.6888 10.5971 17.3469 12.2592 17.5407C12.0456 17.733 11.8518 18.0704 11.7842 18.5666C11.3579 18.7634 10.2734 19.1024 9.60539 17.9298C9.60539 17.9298 9.20945 17.1926 8.45861 17.1387C8.45861 17.1387 7.72752 17.1288 8.40769 17.6053C8.40769 17.6053 8.89787 17.8409 9.23833 18.7277C9.23833 18.7277 9.67835 20.2202 11.7599 19.7567C11.7637 20.3973 11.7698 20.8791 11.7698 21.0623C11.7698 21.2652 11.6337 21.5023 11.2591 21.4316C8.28457 20.4171 6.13995 17.5399 6.13995 14.1491C6.13995 9.9101 9.4914 6.47363 13.6248 6.47363C17.7591 6.47363 21.1105 9.9101 21.1105 14.1491C21.1105 17.5392 18.9682 20.414 15.9967 21.4308ZM13.6254 0.62207C6.25372 0.62207 0.25 6.62638 0.25 13.9978C0.25 21.3685 6.25372 27.3721 13.6254 27.3721C21.073 27.3721 27 21.3685 27 13.9978C27 6.62638 20.997 0.62207 13.6254 0.62207Z" fill="white"/>
</svg>
