<svg width="113" height="28" viewBox="0 0 113 28" fill="none" xmlns="http://www.w3.org/2000/svg">
<path fill-rule="evenodd" clip-rule="evenodd" d="M77.6242 18.0553C77.4155 17.5205 76.7893 17.1479 76.0506 17.1479C75.1032 17.1479 73.7869 17.9905 73.8352 19.6432L77.6242 18.0553ZM79.8079 18.7041L74.14 21.0699C74.5737 21.9282 75.2482 22.3658 76.1953 22.3658C77.1427 22.3658 77.8009 21.8961 78.2826 21.1831L79.7278 22.1552C79.2618 22.8519 78.138 24.0509 76.1953 24.0509C73.787 24.0509 71.9885 22.1715 71.9885 19.7734C71.9885 17.2296 73.8032 15.4961 75.9868 15.4961C78.1863 15.4961 79.2618 17.262 79.6154 18.2178L79.8079 18.7041ZM69.2274 23.7915H71.0898V11.2188H69.2274V23.7915ZM66.3051 19.7892C66.3051 18.2823 65.3094 17.1807 64.0411 17.1807C62.7567 17.1807 61.6809 18.2823 61.6809 19.7892C61.6809 21.2797 62.7567 22.3653 64.0411 22.3653C65.3094 22.3653 66.3051 21.2797 66.3051 19.7892ZM66.1767 15.7552H67.9429V23.4351C67.9429 26.5947 66.0967 27.8909 63.9128 27.8909C61.8575 27.8909 60.6213 26.4975 60.1559 25.3635L61.7775 24.6829C62.0663 25.3795 62.7731 26.2061 63.9128 26.2061C65.3097 26.2061 66.1767 25.3308 66.1767 23.6944V23.0785H66.1126C65.6951 23.597 64.8923 24.0509 63.8807 24.0509C61.7616 24.0509 59.8188 22.1876 59.8188 19.7897C59.8188 17.3755 61.7616 15.4961 63.8807 15.4961C64.8923 15.4961 65.6951 15.9495 66.1126 16.4518H66.1767V15.7552ZM101.868 20.3738C101.371 20.1308 100.987 19.9531 100.169 19.9531C99.2555 19.9531 98.1977 20.3251 98.1977 21.2954C98.1977 22.056 99.0471 22.3632 99.6562 22.3632C100.73 22.3632 101.724 21.5384 101.868 20.3738ZM103.663 18.9502V23.7702H101.868V22.7999H101.804C101.371 23.463 100.682 24.029 99.4312 24.029C97.7967 24.029 96.3376 22.9455 96.3376 21.2633C96.3376 19.4193 98.1491 18.4326 99.9285 18.4326C100.81 18.4326 101.531 18.7238 101.868 18.9178V18.7885C101.852 17.7532 100.874 17.1709 99.9123 17.1709C99.2228 17.1709 98.566 17.3972 98.2133 18.093L96.5623 17.3972C97.1393 16.071 98.5336 15.4727 99.8805 15.4727C102.012 15.4727 103.663 16.7181 103.663 18.9502ZM110.203 15.7471L108.071 21.1982H108.007L105.795 15.7471H103.792L107.109 23.3658L105.218 27.6035H107.157L112.271 15.7471H110.203ZM93.4527 23.7915H95.3119V11.2188H93.4527V23.7915ZM47.894 19.7728C47.894 18.2336 46.7862 17.1807 45.502 17.1807C44.2172 17.1807 43.1094 18.2336 43.1094 19.7728C43.1094 21.2957 44.2172 22.3653 45.502 22.3653C46.7862 22.3653 47.894 21.2957 47.894 19.7728ZM49.7568 19.7734C49.7568 22.236 47.8464 24.0509 45.5023 24.0509C43.158 24.0509 41.2473 22.236 41.2473 19.7734C41.2473 17.2944 43.158 15.4961 45.5023 15.4961C47.8464 15.4961 49.7568 17.2944 49.7568 19.7734ZM90.5674 15.1231C90.5674 14.1299 89.7778 12.9683 88.3876 12.9683H85.7427V17.2779H88.3876C89.7778 17.2779 90.5674 16.0973 90.5674 15.1231ZM92.427 15.1228C92.427 17.5215 90.4013 19.0272 88.3398 19.0272H85.7432V23.7908H83.884V11.2178H88.3398C90.4013 11.2178 92.427 12.7237 92.427 15.1228ZM57.176 19.7728C57.176 18.2336 56.0681 17.1807 54.7836 17.1807C53.4991 17.1807 52.3913 18.2336 52.3913 19.7728C52.3913 21.2957 53.4991 22.3653 54.7836 22.3653C56.0681 22.3653 57.176 21.2957 57.176 19.7728ZM59.0387 19.7734C59.0387 22.236 57.128 24.0509 54.784 24.0509C52.4396 24.0509 50.5292 22.236 50.5292 19.7734C50.5292 17.2944 52.4396 15.4961 54.784 15.4961C57.128 15.4961 59.0387 17.2944 59.0387 19.7734ZM34.4607 16.8086V18.6233H38.7637C38.635 19.6441 38.298 20.3895 37.7842 20.908C37.158 21.5399 36.1785 22.2363 34.4607 22.2363C31.8113 22.2363 29.7402 20.0814 29.7402 17.4079C29.7402 14.7346 31.8113 12.5795 34.4607 12.5795C35.8897 12.5795 36.9334 13.1469 37.7038 13.876L38.9724 12.5958C37.8967 11.559 36.4676 10.7651 34.4607 10.7651C30.8319 10.7651 27.7812 13.7462 27.7812 17.4079C27.7812 21.0702 30.8319 24.0512 34.4607 24.0512C36.4194 24.0512 37.8967 23.403 39.0525 22.1878C40.2407 20.9888 40.6099 19.3036 40.6099 17.9427C40.6099 17.5214 40.5781 17.1328 40.5136 16.8086H34.4607ZM62.9657 2.93493L62.9328 1.7718H62.9657L66.0061 6.69377H66.8083V0.65918H66.039V4.19075L66.0723 5.35357H66.039L63.133 0.65918H62.1979V6.69377H62.9657V2.93493ZM55.7578 3.67693C55.7578 4.37926 55.9795 4.95682 56.4214 5.40899C56.8642 5.86117 57.4053 6.08726 58.0459 6.08726C58.6862 6.08726 59.2285 5.86117 59.6704 5.40899C60.1132 4.95682 60.3349 4.37926 60.3349 3.67693C60.3349 2.9746 60.1132 2.39734 59.6704 1.94487C59.2285 1.49269 58.6862 1.2666 58.0459 1.2666C57.4053 1.2666 56.8642 1.49269 56.4214 1.94487C55.9795 2.39734 55.7578 2.9746 55.7578 3.67693ZM55.8542 5.9145C55.2663 5.30516 54.9736 4.55915 54.9736 3.67708C54.9736 2.795 55.2663 2.049 55.8542 1.43966C56.4409 0.830019 57.1719 0.524902 58.046 0.524902C58.9151 0.524902 59.6441 0.831207 60.2349 1.44382C60.8246 2.05613 61.1193 2.80035 61.1193 3.67708C61.1193 4.55915 60.8255 5.30516 60.2388 5.9145C59.6508 6.52444 58.9198 6.82896 58.046 6.82896C57.1719 6.82896 56.4409 6.52444 55.8542 5.9145ZM50.7897 6.69377V1.40073H52.4598V0.65918H48.3505V1.40073H50.0207V6.69377H50.7897ZM46.6137 6.69377H47.3815V0.65918H46.6137V6.69377ZM41.9704 6.69377V1.40073H43.6403V0.65918H39.5313V1.40073H41.2015V6.69377H41.9704ZM38.7304 5.95222H36.0074V4.03893H38.4627V3.31402H36.0074V1.40073H38.7304V0.65918H35.2393V6.69377H38.7304V5.95222ZM28.9968 5.92312C28.3924 5.31912 28.0909 4.57015 28.0909 3.67708C28.0909 2.78342 28.3924 2.03504 28.9968 1.43104C29.6003 0.827048 30.3342 0.524902 31.1974 0.524902C31.6255 0.524902 32.0353 0.609277 32.4248 0.778027C32.814 0.946777 33.1264 1.17108 33.3598 1.45184L32.8343 1.98275C32.4383 1.50561 31.8934 1.26675 31.1974 1.26675C30.5677 1.26675 30.0236 1.48987 29.5644 1.9367C29.1048 2.38353 28.8755 2.96346 28.8755 3.67708C28.8755 4.3907 29.1048 4.97063 29.5644 5.41746C30.0236 5.86429 30.5677 6.08741 31.1974 6.08741C31.8651 6.08741 32.4219 5.86281 32.8676 5.4136C33.1567 5.12096 33.3239 4.71394 33.3687 4.19135H31.1974V3.46644H34.095C34.1229 3.6242 34.1368 3.77542 34.1368 3.92188C34.1368 4.76445 33.8895 5.43558 33.394 5.93589C32.8317 6.53127 32.0986 6.82896 31.1974 6.82896C30.3342 6.82896 29.6003 6.52711 28.9968 5.92312Z" fill="white"/>
<path opacity="0.9" fill-rule="evenodd" clip-rule="evenodd" d="M0.395689 1.89407C0.146963 2.16074 0 2.57546 0 3.11238V22.2905C0 22.8277 0.146963 23.2417 0.395689 23.5088L0.458818 23.5711L11.049 12.8281V12.7013V12.5745L0.458818 1.83105L0.395689 1.89407Z" fill="white"/>
<path opacity="0.6" fill-rule="evenodd" clip-rule="evenodd" d="M10.9568 12.5913V12.7196V12.8479L14.4867 16.4725L14.5673 16.4261L18.7494 13.987C19.9443 13.2898 19.9443 12.1499 18.7494 11.4533L14.5673 9.01417L14.4875 8.96777L10.9568 12.5913Z" fill="white"/>
<path opacity="0.7" fill-rule="evenodd" clip-rule="evenodd" d="M0.424438 23.5283C0.816056 23.9497 1.46223 24.0017 2.19023 23.5814L14.6048 16.4091L11.0154 12.7593L0.424438 23.5283Z" fill="white"/>
<path opacity="0.8" fill-rule="evenodd" clip-rule="evenodd" d="M11.0273 12.7544L14.6166 9.04848L2.20207 1.76588C1.86091 1.56579 1.53758 1.47119 1.24989 1.47119C0.924044 1.47119 0.644389 1.59275 0.436279 1.82004L11.0273 12.7544Z" fill="white"/>
</svg>
