<svg width="100" height="30" viewBox="0 0 100 30" fill="none" xmlns="http://www.w3.org/2000/svg">
<path fill-rule="evenodd" clip-rule="evenodd" d="M14.076 4.20976C14.946 3.08401 15.5413 1.55341 15.3762 0C14.1169 0.0573226 12.5416 0.900655 11.6344 2.00149C10.8318 2.97087 10.1148 4.5606 10.3003 6.05548C11.7151 6.16443 13.1677 5.31689 14.076 4.20976ZM20.6672 19.272C20.6472 19.3644 20.1456 21.1702 18.896 23.0018C17.8527 24.6156 16.7592 26.1927 15.0224 26.2212C13.3359 26.2614 12.7684 25.1954 10.8334 25.1954C8.88097 25.1954 8.27631 26.1927 6.65858 26.2614C5.00456 26.3248 3.74067 24.5402 2.65938 22.9403C0.497945 19.6759 -1.18481 13.7411 1.07154 9.7027C2.16445 7.72162 4.15781 6.44642 6.28905 6.41251C7.94481 6.37769 9.48127 7.56826 10.499 7.56826C11.4964 7.56826 13.3966 6.1436 15.3551 6.35668C16.1746 6.38159 18.5064 6.69162 20.0112 8.95931C19.8896 9.03464 17.2332 10.6487 17.262 13.9671C17.2959 17.943 20.6272 19.2582 20.6672 19.272Z" fill="white"/>
<path fill-rule="evenodd" clip-rule="evenodd" d="M77.8689 6.08154H78.3723C79.118 6.08154 79.6413 6.26157 79.6413 6.79985C79.6413 7.37828 78.9822 7.51756 78.441 7.51756C78.2086 7.51756 78.0629 7.51756 77.8689 7.4972V6.08154ZM77.8793 4.14786C78.0527 4.12809 78.2083 4.10742 78.4502 4.10742C79.1468 4.10742 79.476 4.3171 79.476 4.70561C79.476 5.1741 78.9723 5.34365 78.372 5.34365H77.8793V4.14786ZM76.7084 8.23428C76.9902 8.24417 77.6184 8.29389 78.2187 8.29389C79.1578 8.29389 80.8615 8.1546 80.8615 6.82821C80.8615 6.15004 80.3872 5.75165 79.6802 5.64171V5.62224C80.1836 5.51231 80.6495 5.16364 80.6495 4.54508C80.6495 3.42837 79.2259 3.31934 78.431 3.31934C77.7822 3.31934 77.0574 3.37925 76.7075 3.43885H76.7084V8.23428ZM70.2822 4.15723C71.0969 4.15723 71.4264 5.0349 71.4264 5.79364C71.4264 6.78095 70.9526 7.45882 70.275 7.45882C69.5578 7.45882 69.1026 6.75069 69.1026 5.81282C69.1026 5.00524 69.4426 4.15723 70.2822 4.15723ZM70.2353 8.34514C71.4356 8.34514 72.6554 7.54685 72.6554 5.76186C72.6554 4.2863 71.7162 3.26904 70.313 3.26904C68.8899 3.26904 67.8737 4.24586 67.8737 5.84184C67.8737 7.40697 68.9085 8.34514 70.2353 8.34514ZM63.3557 8.23552H62.165V3.37988H63.3557V5.23437H65.1763V3.37988H66.3661V8.23552H65.1763V6.19172H63.3557V8.23552ZM56.2037 3.37988H60.3655V8.23552H59.1653V4.32705H57.3932V8.23552H56.2037V3.37988ZM52.0015 7.83652L50.2681 3.37988H51.587L52.429 5.98264C52.525 6.28158 52.6323 6.65032 52.6989 6.91931H52.7283C52.7963 6.65032 52.883 6.28158 52.9813 5.97215L53.7159 3.37988H54.9843L53.8014 6.69046C53.1529 8.50571 52.7172 9.31238 52.1658 9.81143C51.6908 10.2311 51.2066 10.3907 50.9163 10.4306L50.645 9.40285C50.8486 9.35372 51.0903 9.24379 51.3325 9.06406C51.5652 8.91339 51.8264 8.62493 51.991 8.29543C52.0387 8.20556 52.0585 8.13577 52.0585 8.07616C52.0585 8.02703 52.0489 7.95724 52.0015 7.83652ZM49.5474 4.32705H48.1336V8.23552H46.9424V4.32705H45.5286V3.37988H49.5474V4.32705ZM40.8651 5.85232C40.8651 4.39653 41.8324 3.26904 43.4887 3.26904C43.9246 3.26904 44.369 3.36909 44.6404 3.48891L44.4284 4.4157C44.2347 4.31625 43.9531 4.22609 43.5277 4.22609C42.6173 4.22609 42.0749 4.91445 42.0845 5.8008C42.0845 6.79859 42.7145 7.36683 43.5277 7.36683C43.9342 7.36683 44.2338 7.27726 44.4662 7.17632L44.6308 8.08604C44.3795 8.20496 43.8854 8.33586 43.2953 8.33586C41.8234 8.33586 40.8651 7.35874 40.8651 5.85232ZM37.2764 4.15723C38.0896 4.15723 38.4188 5.0349 38.4188 5.79364C38.4188 6.78095 37.9439 7.45882 37.2668 7.45882C36.5505 7.45882 36.095 6.75069 36.095 5.81282C36.095 5.00524 36.4339 4.15723 37.2764 4.15723ZM37.2272 8.34514C38.4275 8.34514 39.6473 7.54685 39.6473 5.76186C39.6473 4.2863 38.7084 3.26904 37.3037 3.26904C35.8812 3.26904 34.8647 4.24586 34.8647 5.84184C34.8647 7.40697 35.9001 8.34514 37.2272 8.34514ZM29.9208 6.03205C30.1349 5.32332 30.2311 4.49568 30.2311 3.57817V2.52197H31.9255V7.22903H29.4371C29.6105 6.89893 29.7952 6.47088 29.9208 6.03205ZM28.6631 9.89934L28.7306 8.23447H32.69L32.7584 9.89934H33.6681L33.7359 7.2873L33.1164 7.25795V1.51416H29.1267V3.2692C29.1267 4.23613 29.0499 5.05389 28.8466 5.7725C28.7009 6.3 28.4682 6.78946 28.2167 7.25795L27.694 7.2873L27.7531 9.89934H28.6631ZM94.4892 18.6098C94.8845 18.064 95.4027 17.792 96.04 17.792C96.7354 17.792 97.2536 18.0706 97.591 18.6292C97.8551 19.0627 97.9825 19.5752 97.9688 20.1698H93.9131C93.9715 19.5647 94.1644 19.0432 94.4892 18.6098ZM99.826 20.6906C99.826 19.5649 99.5672 18.6166 99.0527 17.8503C98.4033 16.8846 97.4467 16.4023 96.1842 16.4023C94.8975 16.4023 93.8752 16.8846 93.1191 17.8503C92.396 18.7544 92.0357 19.8882 92.0357 21.249C92.0357 22.6353 92.4248 23.7415 93.1991 24.5647C93.975 25.3878 95.0421 25.7994 96.4015 25.7994C97.5311 25.7994 98.5106 25.6137 99.3398 25.2419L99.0347 23.8496C98.3247 24.1348 97.5363 24.2759 96.6708 24.2759C95.8896 24.2759 95.2524 24.0656 94.76 23.646C94.2178 23.1754 93.9349 22.493 93.9128 21.601H99.7548C99.8031 21.3535 99.826 21.0507 99.826 20.6906ZM91.1158 18.3691C91.1161 18.3694 91.1164 18.3694 91.1167 18.3694H91.1158V18.3691ZM91.1157 16.456V18.3689C90.9231 18.332 90.7172 18.3138 90.5023 18.3138C89.8174 18.3138 89.2875 18.5795 88.9146 19.1129C88.5906 19.5832 88.4289 20.1781 88.4289 20.8952V25.6326H86.4812V19.4472C86.4812 18.4075 86.4626 17.4589 86.425 16.6055H88.1218L88.193 18.3329H88.2468C88.4528 17.7395 88.7768 17.2606 89.2206 16.9026C89.6542 16.58 90.1236 16.4194 90.6282 16.4194C90.8085 16.4194 90.9711 16.432 91.1157 16.456ZM82.2252 23.2396C81.8035 23.9675 81.2198 24.3333 80.475 24.3333C79.7153 24.3333 79.1272 23.9747 78.7064 23.2585C78.3574 22.6666 78.1835 21.9555 78.1835 21.1275C78.1835 20.2759 78.3574 19.554 78.7064 18.9606C79.1139 18.2435 79.7118 17.8853 80.4921 17.8853C81.2495 17.8853 81.8338 18.2435 82.2424 18.9606C82.5902 19.554 82.7641 20.263 82.7641 21.0901C82.7641 21.9189 82.585 22.6337 82.2252 23.2396ZM80.5646 16.4199C79.2299 16.4199 78.1681 16.8653 77.3794 17.7574C76.5929 18.6485 76.1989 19.7943 76.1989 21.1935C76.1989 22.5304 76.5804 23.6396 77.3442 24.5187C78.1076 25.3967 79.1319 25.8361 80.4198 25.8361C81.7541 25.8361 82.8247 25.3784 83.6294 24.4615C84.3984 23.5704 84.7838 22.4309 84.7838 21.0437C84.7838 19.6931 84.4118 18.5928 83.6652 17.7391C82.8837 16.8597 81.8507 16.4199 80.5646 16.4199ZM72.9713 16.6023H75.1177V18.109H72.9713V22.4928C72.9713 23.6072 73.35 24.1637 74.1076 24.1637C74.456 24.1637 74.7448 24.1338 74.9731 24.0715L75.0269 25.5943C74.643 25.7423 74.1384 25.8169 73.512 25.8169C72.7433 25.8169 72.1418 25.5749 71.7082 25.092C71.2766 24.6088 71.0591 23.7983 71.0591 22.6582V18.1072H69.7797V16.6023H71.0591V14.9491L72.9713 14.3545V16.6023ZM67.9209 19.9487C68.415 20.5298 68.6623 21.255 68.6623 22.1204C68.6623 23.1865 68.3008 24.0525 67.5815 24.7217C66.7904 25.452 65.6858 25.8174 64.2701 25.8174C62.9627 25.8174 61.9137 25.5574 61.1226 25.0374L61.5728 23.3656C62.4264 23.8862 63.365 24.1462 64.3867 24.1462C65.1205 24.1462 65.6914 23.9752 66.0988 23.6355C66.5077 23.2946 66.7137 22.8396 66.7137 22.2711C66.7137 21.7622 66.5435 21.3359 66.2079 20.9887C65.8705 20.6422 65.313 20.3195 64.5312 20.023C62.4023 19.2052 61.3373 18.01 61.3373 16.4368C61.3373 15.41 61.7136 14.5683 62.4648 13.9114C63.2158 13.2548 64.2113 12.9268 65.4497 12.9268C66.5557 12.9268 67.4774 13.1251 68.2094 13.5211L67.7208 15.1563C67.0318 14.7726 66.2541 14.58 65.3854 14.58C64.6985 14.58 64.1595 14.7543 63.7745 15.1006C63.4496 15.41 63.2853 15.7871 63.2853 16.2346C63.2853 16.7292 63.4729 17.139 63.8457 17.4604C64.1694 17.7572 64.7595 18.0798 65.612 18.4264C66.659 18.8608 67.4285 19.367 67.9209 19.9487ZM54.7911 23.3853C54.3834 23.9655 53.8125 24.2579 53.0787 24.2579C52.4519 24.2579 51.9435 24.0305 51.5532 23.5794C51.1641 23.1265 50.9681 22.5729 50.9681 21.9166V20.4108C50.9681 20.2511 50.9992 20.048 51.0591 19.8C51.1784 19.2671 51.4334 18.8367 51.824 18.5081C52.2158 18.1813 52.6523 18.0156 53.1328 18.0156C53.8418 18.0156 54.4058 18.3134 54.8269 18.9065C55.2123 19.4774 55.4048 20.2026 55.4048 21.0806C55.4048 22.0343 55.1997 22.8024 54.7911 23.3853ZM53.765 16.4194C52.4411 16.4194 51.4554 16.9577 50.8069 18.0361H50.7702L50.6615 16.6049H48.9487C48.9967 17.6191 49.0209 18.6076 49.0209 19.5725V29.2927H50.9683V24.5557C51.4758 25.4103 52.3111 25.8365 53.4715 25.8365C54.547 25.8365 55.448 25.4405 56.1743 24.6474C56.9842 23.7565 57.3894 22.5427 57.3894 21.0076C57.3894 19.633 57.0424 18.5249 56.3534 17.6817C55.6615 16.84 54.798 16.4194 53.765 16.4194ZM44.7093 23.3853C44.301 23.9655 43.7304 24.2579 42.9966 24.2579C42.3719 24.2579 41.8641 24.0317 41.4729 23.5794C41.0823 23.1265 40.8866 22.5729 40.8866 21.9166V20.4108C40.8866 20.2511 40.9168 20.048 40.977 19.8C41.0966 19.2671 41.3525 18.8367 41.7434 18.5081C42.1337 18.1813 42.5702 18.0156 43.0507 18.0156C43.7595 18.0156 44.3249 18.3134 44.746 18.9065C45.1314 19.4774 45.3236 20.2026 45.3236 21.0806C45.3236 22.0343 45.1188 22.8024 44.7093 23.3853ZM43.6836 16.4194C42.3612 16.4194 41.3753 16.9577 40.7261 18.0361H40.6895L40.5807 16.6049H38.868C38.9157 17.6191 38.9401 18.6076 38.9401 19.5725V29.2927H40.8875V24.5557C41.3945 25.4103 42.2295 25.8365 43.3908 25.8365C44.4654 25.8365 45.3676 25.4405 46.0926 24.6474C46.9032 23.7565 47.3075 22.5427 47.3075 21.0076C47.3075 19.633 46.9614 18.5249 46.2712 17.6817C45.5811 16.84 44.7179 16.4194 43.6836 16.4194ZM30.444 20.4122L31.4541 17.1433C31.7179 16.1033 31.9107 15.3167 32.0314 14.7847H32.0678C32.3676 16.0224 32.5715 16.809 32.6806 17.1433L33.7084 20.4122H30.444ZM30.9126 13.1118L26.9988 25.6322H29.0184L30.1012 21.9544H34.0505L35.187 25.6322H37.2616L33.3298 13.1118H30.9126Z" fill="white"/>
</svg>
