<svg width="27" height="28" viewBox="0 0 27 28" fill="none" xmlns="http://www.w3.org/2000/svg">
<path fill-rule="evenodd" clip-rule="evenodd" d="M17.9082 17.3408C17.9082 17.9495 17.4515 18.4047 16.8443 18.4047H10.1568C9.54883 18.4047 9.0921 17.9495 9.0921 17.3408V12.8579H10.7647C10.612 13.2379 10.5368 13.6179 10.5368 13.9978C10.5368 15.6697 11.9047 16.9608 13.4998 16.9608C15.1716 16.9608 16.4643 15.5929 16.4643 13.9978C16.4643 13.6179 16.3883 13.2379 16.2363 12.8579H17.9082V17.3408ZM11.9043 12.8577C12.2842 12.401 12.8162 12.021 13.4994 12.021C14.1841 12.021 14.7161 12.325 15.096 12.8577C15.324 13.1609 15.476 13.5409 15.476 13.9976C15.476 15.0608 14.6393 15.8975 13.5761 15.8975C12.5115 15.8975 11.6763 15.0608 11.6763 13.9976C11.5243 13.6176 11.6763 13.2377 11.9043 12.8577ZM17.4511 9.81836H17.6791V11.6415H15.856V9.81836H17.4511ZM16.8438 8.52539H10.1563C9.01637 8.52539 8.02844 9.43808 8.02844 10.6532V17.3407C8.02844 18.4806 9.01637 19.4693 10.1563 19.4693H16.8438C17.9837 19.4693 18.9709 18.5574 18.9709 17.3407V10.6532C18.9709 9.51332 17.9837 8.52539 16.8438 8.52539ZM13.4992 27.3721C6.12855 27.3721 0.125 21.3693 0.125 13.9978C0.125 6.62562 6.12855 0.62207 13.4992 0.62207C20.8707 0.62207 26.875 6.62562 26.875 13.9978C26.875 21.3693 20.8707 27.3721 13.4992 27.3721Z" fill="white"/>
</svg>
