<svg width="18" height="18" fill="none" xmlns="http://www.w3.org/2000/svg"><path fill-rule="evenodd" clip-rule="evenodd" d="M14.625 9c0 .31-.252.563-.563.563h-4.5v4.5a.563.563 0 01-1.124 0v-4.5h-4.5a.563.563 0 010-1.125h4.5v-4.5a.563.563 0 011.125 0v4.5h4.5c.31 0 .562.252.562.562zm-.056 5.568A7.823 7.823 0 019 16.875a7.822 7.822 0 01-5.568-2.307A7.821 7.821 0 011.125 9c0-2.103.82-4.08 2.307-5.568A7.823 7.823 0 019 1.125c2.104 0 4.081.82 5.569 2.307A7.822 7.822 0 0116.875 9c0 2.104-.819 4.08-2.306 5.568zm.795-11.931A8.94 8.94 0 009 0a8.94 8.94 0 00-6.364 2.637A8.939 8.939 0 000 9a8.94 8.94 0 002.636 6.364A8.94 8.94 0 009 18a8.94 8.94 0 006.364-2.636A8.94 8.94 0 0018 9a8.94 8.94 0 00-2.636-6.363z" fill="#06C"/></svg>