<svg width="18" height="18" viewBox="0 0 18 18" fill="none" xmlns="http://www.w3.org/2000/svg">
<path fill-rule="evenodd" clip-rule="evenodd" d="M14.625 9.00016C14.625 9.31065 14.373 9.56265 14.0625 9.56265H9.56262V14.0626C9.56262 14.3731 9.31062 14.6251 9.00013 14.6251C8.68963 14.6251 8.43763 14.3731 8.43763 14.0626V9.56265H3.9377C3.62721 9.56265 3.37521 9.31065 3.37521 9.00016C3.37521 8.68966 3.62721 8.43766 3.9377 8.43766H8.43763V3.93774C8.43763 3.62724 8.68963 3.37524 9.00013 3.37524C9.31062 3.37524 9.56262 3.62724 9.56262 3.93774V8.43766H14.0625C14.373 8.43766 14.625 8.68966 14.625 9.00016ZM14.5685 14.5682C13.081 16.0557 11.1036 16.875 9.00013 16.875C6.89669 16.875 4.91897 16.0557 3.43175 14.5679C1.94424 13.0807 1.12497 11.1036 1.12497 9.00012C1.12497 6.89669 1.94424 4.91953 3.43175 3.43202C4.91897 1.94451 6.89669 1.12524 9.00013 1.12524C11.1036 1.12524 13.081 1.94451 14.5685 3.4323C16.056 4.91953 16.8753 6.89669 16.8753 9.00012C16.8753 11.1036 16.056 13.0807 14.5685 14.5682ZM15.3639 2.63664C13.664 0.936511 11.4039 0.000244141 9.00014 0.000244141C6.59605 0.000244141 4.33596 0.936511 2.6364 2.63664C0.936267 4.33621 0 6.5963 0 9.0001C0 11.4039 0.936267 13.664 2.6364 15.3636C4.33596 17.0637 6.59605 18 9.00014 18C11.4039 18 13.664 17.0637 15.3639 15.3636C17.064 13.664 18.0003 11.4039 18.0003 9.0001C18.0003 6.5963 17.064 4.33621 15.3639 2.63664Z" fill="#0066CC"/>
</svg>
