<svg width="27" height="28" fill="none" xmlns="http://www.w3.org/2000/svg"><path fill-rule="evenodd" clip-rule="evenodd" d="M17.908 17.34a1.04 1.04 0 01-1.064 1.065h-6.687a1.04 1.04 0 01-1.065-1.064v-4.483h1.673a3.03 3.03 0 00-.228 1.14A2.967 2.967 0 0013.5 16.96a2.968 2.968 0 002.964-2.963c0-.38-.076-.76-.228-1.14h1.672v4.483zm-6.004-4.482c.38-.457.912-.837 1.595-.837.685 0 1.217.304 1.597.837.228.303.38.683.38 1.14 0 1.063-.837 1.9-1.9 1.9-1.065 0-1.9-.837-1.9-1.9-.152-.38 0-.76.228-1.14zm5.547-3.04h.228v1.824h-1.823V9.818h1.595zm-.607-1.293h-6.688c-1.14 0-2.128.913-2.128 2.128v6.688c0 1.14.988 2.128 2.128 2.128h6.688c1.14 0 2.127-.912 2.127-2.128v-6.688c0-1.14-.987-2.128-2.127-2.128zm-3.345 18.847C6.13 27.372.125 21.37.125 13.998.125 6.626 6.129.622 13.499.622c7.372 0 13.376 6.004 13.376 13.376 0 7.371-6.004 13.374-13.376 13.374z" fill="#fff"/></svg>